<svg id="svg" version="1.1" xmlns="http://www.w3.org/2000/svg" xmlns:xlink="http://www.w3.org/1999/xlink" width="400" height="400" viewBox="0, 0, 400,400"><g id="svgg"><path id="path0" d="M121.443 16.285 C 121.026 16.393,115.657 21.499,109.511 27.632 L 98.337 38.783 98.057 41.713 L 97.777 44.642 91.489 50.943 L 85.200 57.244 85.200 95.608 C 85.200 133.128,85.183 133.981,84.426 134.386 C 83.929 134.652,77.811 134.801,67.326 134.803 L 51.000 134.805 50.319 136.003 C 49.944 136.661,49.380 137.200,49.065 137.200 C 48.751 137.200,48.396 137.573,48.276 138.030 C 48.157 138.486,47.686 138.957,47.230 139.076 C 46.773 139.196,46.400 139.551,46.400 139.865 C 46.400 140.180,45.861 140.744,45.203 141.119 C 44.544 141.493,44.004 142.029,44.003 142.309 C 44.001 142.588,43.550 143.022,43.000 143.273 C 42.450 143.523,42.000 143.861,42.000 144.022 C 42.000 144.489,38.564 148.000,38.107 148.000 C 37.879 148.000,37.596 148.373,37.476 148.830 C 37.357 149.286,36.886 149.757,36.430 149.876 C 35.973 149.996,35.600 150.351,35.600 150.665 C 35.600 150.980,35.061 151.544,34.403 151.919 C 33.744 152.293,33.204 152.829,33.203 153.109 C 33.201 153.388,32.750 153.822,32.200 154.073 C 31.650 154.323,31.200 154.755,31.200 155.031 C 31.200 155.307,30.723 155.881,30.140 156.306 C 29.204 156.988,29.050 157.434,28.831 160.119 L 28.582 163.160 22.291 169.468 L 16.000 175.776 16.000 256.024 L 16.000 336.272 16.965 336.711 C 17.496 336.953,18.048 337.522,18.192 337.976 C 18.336 338.429,18.716 338.800,19.036 338.800 C 19.355 338.800,19.821 339.247,20.070 339.794 C 20.319 340.341,20.946 341.065,21.462 341.404 C 21.978 341.742,22.400 342.272,22.400 342.582 C 22.400 342.892,22.760 343.260,23.200 343.400 C 23.640 343.540,24.000 343.820,24.000 344.022 C 24.000 345.157,38.257 358.692,39.742 358.967 C 40.590 359.124,42.900 360.095,44.875 361.126 L 48.465 363.000 200.733 363.213 C 363.260 363.441,357.573 363.491,361.084 361.782 C 364.902 359.923,377.173 347.575,379.122 343.631 L 380.600 340.641 380.600 264.821 C 380.600 192.689,380.565 188.883,379.873 186.600 C 378.740 182.858,378.473 181.631,378.054 178.246 L 377.664 175.091 374.677 172.046 C 373.034 170.371,371.126 168.370,370.438 167.600 C 369.749 166.830,368.805 165.790,368.341 165.290 C 365.909 162.669,365.245 161.496,364.977 159.355 C 364.767 157.670,364.483 157.011,363.767 156.541 C 363.252 156.204,362.725 155.594,362.595 155.185 C 362.465 154.776,362.017 154.333,361.600 154.200 C 361.183 154.067,360.726 153.598,360.586 153.157 C 360.446 152.715,359.897 152.189,359.366 151.987 C 358.835 151.785,358.400 151.341,358.400 151.001 C 358.400 150.661,357.953 150.179,357.408 149.931 C 356.862 149.682,356.310 149.146,356.181 148.739 C 356.052 148.333,355.783 148.000,355.584 148.000 C 355.133 148.000,351.600 144.500,351.600 144.054 C 351.600 143.875,351.150 143.523,350.600 143.273 C 350.050 143.022,349.600 142.543,349.600 142.209 C 349.600 141.874,349.412 141.600,349.183 141.600 C 348.953 141.600,347.789 140.632,346.596 139.448 C 345.403 138.264,344.133 137.183,343.775 137.046 C 343.417 136.908,343.030 136.435,342.914 135.994 C 342.615 134.849,342.362 134.826,328.000 134.689 C 317.844 134.592,314.650 134.437,313.400 133.981 L 311.800 133.397 311.583 101.398 L 311.365 69.400 310.304 66.268 C 309.720 64.545,309.123 61.845,308.978 60.268 C 308.708 57.326,307.602 55.007,305.900 53.815 C 305.017 53.196,299.724 47.409,297.596 44.734 C 296.387 43.215,296.060 42.413,295.834 40.416 C 295.592 38.279,295.425 37.914,294.539 37.577 C 293.980 37.364,293.429 36.833,293.315 36.395 C 293.200 35.958,292.862 35.600,292.564 35.600 C 292.265 35.600,291.748 35.073,291.415 34.428 C 291.081 33.784,290.456 33.145,290.025 33.008 C 289.594 32.871,289.133 32.417,289.000 32.000 C 288.867 31.583,288.417 31.133,288.000 31.000 C 287.583 30.867,287.133 30.417,287.000 30.000 C 286.867 29.583,286.397 29.126,285.955 28.986 C 285.513 28.845,284.960 28.311,284.727 27.799 C 284.493 27.287,283.951 26.776,283.522 26.664 C 283.092 26.551,282.643 26.086,282.524 25.630 C 282.404 25.173,282.167 24.800,281.995 24.800 C 281.488 24.800,278.000 21.361,278.000 20.860 C 278.000 20.607,277.734 20.400,277.409 20.400 C 277.084 20.400,276.524 19.950,276.163 19.400 C 275.803 18.850,275.274 18.400,274.987 18.400 C 274.701 18.400,274.106 17.905,273.665 17.300 L 272.864 16.200 197.532 16.145 C 156.099 16.114,121.859 16.178,121.443 16.285 M194.863 37.600 C 196.066 39.227,197.642 39.227,198.800 37.600 L 199.654 36.400 231.263 36.400 L 262.872 36.400 266.736 40.366 C 275.385 49.245,274.800 48.453,274.798 51.289 L 274.797 53.800 280.498 59.448 C 283.634 62.554,286.531 65.466,286.937 65.919 C 287.643 66.710,287.671 68.531,287.619 110.726 C 287.575 147.353,287.657 154.800,288.110 155.254 C 288.547 155.692,289.913 155.749,295.027 155.540 C 298.532 155.397,308.274 155.262,316.676 155.240 L 331.951 155.200 334.876 158.158 C 336.484 159.785,339.195 162.573,340.900 164.354 L 344.000 167.591 344.000 170.096 L 344.000 172.600 350.413 178.800 L 356.826 185.000 356.807 255.235 L 356.788 325.470 350.928 331.330 L 345.068 337.190 196.768 337.205 L 48.467 337.221 45.306 334.111 C 43.568 332.400,40.856 329.830,39.279 328.400 L 36.413 325.800 36.407 255.265 L 36.400 184.731 42.800 178.326 L 49.200 171.922 49.200 169.577 C 49.200 167.949,49.389 167.074,49.819 166.716 C 50.517 166.135,50.742 165.902,53.040 163.392 C 53.942 162.406,54.858 161.600,55.076 161.600 C 55.293 161.600,55.677 161.150,55.927 160.600 C 56.178 160.050,56.661 159.600,57.001 159.600 C 57.341 159.600,57.785 159.165,57.987 158.634 C 58.189 158.103,58.724 157.551,59.177 157.407 C 59.630 157.264,60.003 157.023,60.006 156.873 C 60.039 155.409,60.084 155.406,83.085 155.200 L 105.400 155.000 105.600 110.484 L 105.800 65.969 112.100 59.741 L 118.400 53.513 118.400 51.147 C 118.400 48.713,118.926 47.923,123.493 43.502 C 123.662 43.339,125.330 41.685,127.200 39.828 L 130.600 36.451 162.288 36.425 L 193.976 36.400 194.863 37.600 M143.249 58.950 C 140.558 59.923,140.400 60.449,140.400 68.444 L 140.400 75.600 136.460 75.600 C 132.645 75.600,130.000 76.104,130.000 76.832 C 130.000 78.106,140.142 77.804,140.325 76.525 C 140.402 75.979,140.779 75.602,141.325 75.525 C 142.179 75.403,142.205 75.224,142.427 68.107 C 142.551 64.095,142.754 60.713,142.876 60.591 C 142.998 60.468,151.716 60.367,162.249 60.366 L 181.400 60.365 181.670 62.082 C 181.819 63.027,181.954 66.281,181.970 69.313 L 182.000 74.827 183.392 76.219 L 184.785 77.612 197.092 77.506 L 209.400 77.400 209.525 76.525 C 209.602 75.979,209.979 75.602,210.525 75.525 C 211.379 75.403,211.405 75.224,211.627 68.107 C 211.751 64.095,211.954 60.713,212.076 60.591 C 212.198 60.468,220.916 60.367,231.449 60.366 L 250.600 60.365 250.870 62.082 C 251.019 63.027,251.154 66.281,251.170 69.313 L 251.200 74.827 252.574 76.201 L 253.948 77.575 258.874 77.687 L 263.800 77.800 263.901 135.670 C 263.993 187.885,263.941 193.602,263.373 194.170 C 262.410 195.133,131.192 195.135,130.229 194.171 C 129.663 193.606,129.600 187.739,129.600 135.571 C 129.600 75.078,129.631 76.235,128.070 78.115 C 127.772 78.474,127.604 95.991,127.516 135.815 C 127.447 167.294,127.233 193.328,127.041 193.730 C 126.344 195.185,122.095 194.088,120.133 191.946 C 119.656 191.426,118.454 190.180,117.462 189.178 C 115.690 187.390,115.646 187.281,115.039 183.203 C 114.153 177.257,116.110 177.823,95.886 177.665 C 74.083 177.495,72.210 177.621,71.627 179.293 C 70.890 181.409,71.068 193.574,71.840 193.871 C 72.969 194.304,73.187 193.134,73.200 186.600 C 73.207 183.080,73.363 179.963,73.546 179.673 C 74.159 178.706,112.075 178.883,112.432 179.855 C 112.583 180.265,112.735 183.463,112.770 186.963 L 112.833 193.327 114.469 194.963 L 116.106 196.600 187.953 196.709 C 268.279 196.831,278.131 196.683,278.321 195.354 C 278.446 194.477,277.245 194.000,274.910 194.000 C 274.319 194.000,273.454 193.500,272.760 192.758 L 271.600 191.515 271.591 141.658 C 271.581 85.648,271.825 90.085,268.601 87.254 C 267.141 85.972,267.060 85.769,266.692 82.458 C 266.204 78.060,266.203 78.057,265.065 77.625 C 264.539 77.425,264.009 76.999,263.886 76.679 C 263.661 76.093,260.431 74.800,259.192 74.800 C 258.767 74.800,258.360 74.245,258.065 73.261 C 257.590 71.674,256.475 70.248,254.892 69.200 C 254.127 68.694,253.920 68.039,253.565 65.000 C 252.755 58.059,253.896 58.400,231.475 58.400 C 208.019 58.400,209.600 57.673,209.600 68.454 L 209.600 75.600 202.177 75.600 C 191.829 75.600,189.438 75.171,188.850 73.210 C 188.389 71.670,187.262 70.239,185.692 69.200 C 184.927 68.694,184.720 68.039,184.365 65.000 C 183.554 58.045,184.731 58.391,162.029 58.430 C 149.372 58.453,144.230 58.595,143.249 58.950 M281.281 177.880 C 278.942 178.108,278.800 178.633,278.800 187.026 C 278.800 193.602,278.843 194.000,279.557 194.000 C 280.685 194.000,280.799 193.310,280.806 186.467 C 280.809 183.020,280.961 179.966,281.142 179.680 C 281.753 178.717,319.675 178.884,320.031 179.852 C 320.183 180.263,320.335 183.463,320.370 186.963 L 320.433 193.327 321.969 194.863 L 323.506 196.400 327.103 196.400 C 333.440 196.400,334.223 195.947,330.872 194.221 C 329.842 193.690,328.520 192.749,327.933 192.128 C 327.346 191.508,326.025 190.153,324.997 189.118 C 323.134 187.243,323.125 187.221,322.595 183.164 C 321.821 177.239,324.000 177.807,301.886 177.756 C 291.499 177.732,282.226 177.788,281.281 177.880 M62.811 194.687 C 58.483 195.528,61.204 196.543,67.200 196.324 C 70.292 196.211,70.600 196.128,70.600 195.400 C 70.600 194.585,65.664 194.133,62.811 194.687 M333.439 196.294 C 333.308 196.426,333.200 222.493,333.200 254.222 C 333.200 308.573,333.159 311.961,332.500 312.763 L 331.800 313.614 196.720 313.507 C 86.534 313.420,61.544 313.304,61.120 312.880 C 60.699 312.459,60.580 301.312,60.496 254.380 C 60.388 194.198,60.420 195.340,58.880 196.880 C 58.164 197.596,58.184 314.925,58.900 315.512 C 59.175 315.737,60.660 316.051,62.200 316.209 C 65.737 316.572,65.762 316.587,67.092 319.203 C 67.992 320.975,68.573 321.572,70.189 322.392 L 72.179 323.400 203.400 323.400 L 334.621 323.400 336.599 322.382 C 338.167 321.575,338.807 320.924,339.688 319.237 L 340.800 317.109 340.800 264.226 C 340.800 204.952,341.000 208.957,337.896 205.946 C 336.427 204.520,336.275 204.165,335.906 201.301 C 335.391 197.298,334.416 195.318,333.439 196.294 " stroke="none" fill="#305a76" fill-rule="evenodd"></path><path id="path1" d="M143.864 62.400 C 143.170 63.574,143.173 63.600,143.977 63.600 C 145.026 63.600,145.038 64.245,144.000 64.800 C 143.267 65.192,143.200 65.638,143.200 70.114 L 143.200 75.000 162.200 75.000 L 181.200 75.000 181.200 70.114 C 181.200 65.638,181.133 65.192,180.400 64.800 C 179.362 64.245,179.374 63.600,180.423 63.600 C 181.227 63.600,181.230 63.574,180.536 62.400 C 180.146 61.740,179.686 61.200,179.514 61.200 C 179.341 61.200,179.200 61.740,179.200 62.400 L 179.200 63.600 162.155 63.600 L 145.109 63.600 145.285 62.400 C 145.391 61.681,145.283 61.200,145.017 61.200 C 144.773 61.200,144.254 61.740,143.864 62.400 M213.064 62.400 C 212.370 63.574,212.373 63.600,213.177 63.600 C 214.226 63.600,214.238 64.245,213.200 64.800 C 212.467 65.192,212.400 65.638,212.400 70.114 L 212.400 75.000 231.400 75.000 L 250.400 75.000 250.400 70.114 C 250.400 65.638,250.333 65.192,249.600 64.800 C 248.562 64.245,248.574 63.600,249.623 63.600 C 250.427 63.600,250.430 63.574,249.736 62.400 C 249.346 61.740,248.886 61.200,248.714 61.200 C 248.541 61.200,248.400 61.740,248.400 62.400 L 248.400 63.600 231.400 63.600 L 214.400 63.600 214.400 62.400 C 214.400 61.740,214.259 61.200,214.086 61.200 C 213.914 61.200,213.454 61.740,213.064 62.400 M261.307 78.900 C 261.384 80.963,266.919 80.800,196.808 80.800 L 132.415 80.800 132.147 79.731 L 131.879 78.662 131.139 79.576 C 130.399 80.490,129.915 190.270,130.643 192.167 C 131.015 193.138,262.585 193.138,262.957 192.167 C 263.605 190.479,263.212 80.390,262.554 79.386 C 261.857 78.322,261.278 78.096,261.307 78.900 M131.774 81.642 C 131.425 82.207,130.800 82.060,130.800 81.413 C 130.800 81.056,131.035 80.915,131.398 81.054 C 131.726 81.181,131.896 81.445,131.774 81.642 M74.629 180.629 C 73.848 181.409,73.840 181.600,74.586 181.600 C 74.908 181.600,75.365 181.240,75.600 180.800 C 76.117 179.833,75.528 179.729,74.629 180.629 M109.802 180.404 C 111.001 182.344,110.678 182.384,93.074 182.496 L 76.600 182.600 76.400 187.132 C 76.121 193.452,74.213 192.800,92.996 192.800 C 102.159 192.800,109.249 192.956,109.376 193.161 C 109.498 193.359,110.094 193.694,110.699 193.905 L 111.800 194.289 111.698 188.127 C 111.617 183.264,111.460 181.758,110.952 180.982 C 110.353 180.068,109.252 179.514,109.802 180.404 M282.000 180.800 C 281.660 181.435,281.696 181.600,282.172 181.600 C 282.502 181.600,282.965 181.240,283.200 180.800 C 283.540 180.165,283.504 180.000,283.028 180.000 C 282.698 180.000,282.235 180.360,282.000 180.800 M317.402 180.404 C 318.613 182.363,318.302 182.400,300.616 182.400 L 284.086 182.400 283.917 187.100 C 283.824 189.685,283.824 192.025,283.917 192.300 C 284.048 192.689,287.709 192.800,300.419 192.800 C 309.687 192.800,316.849 192.956,316.976 193.161 C 317.098 193.359,317.694 193.694,318.299 193.905 L 319.400 194.289 319.298 188.127 C 319.217 183.264,319.060 181.758,318.552 180.982 C 317.953 180.068,316.852 179.514,317.402 180.404 M61.829 197.829 C 60.873 198.784,60.992 199.739,62.000 199.200 C 62.440 198.965,62.800 198.418,62.800 197.986 C 62.800 197.036,62.646 197.011,61.829 197.829 M330.502 197.700 C 331.276 199.764,342.074 199.610,196.881 199.602 C 90.249 199.597,63.546 199.696,63.423 200.098 C 63.338 200.374,63.083 207.714,62.857 216.409 C 62.363 235.359,61.886 237.802,61.569 223.000 C 61.442 217.060,61.352 234.280,61.369 261.267 C 61.386 288.253,61.550 310.483,61.733 310.667 C 62.112 311.045,331.625 311.532,332.125 311.155 C 332.304 311.020,331.899 310.800,331.225 310.665 C 330.246 310.469,330.000 310.217,330.000 309.408 L 330.000 308.395 197.500 308.498 C 124.625 308.554,64.685 308.754,64.300 308.943 C 63.721 309.226,63.600 309.098,63.600 308.200 C 63.600 307.302,63.721 307.174,64.300 307.457 C 64.685 307.646,124.599 307.846,197.442 307.902 L 329.884 308.004 330.139 305.302 C 330.279 303.816,330.400 297.560,330.407 291.400 C 330.422 277.994,331.063 257.011,331.493 255.838 C 331.662 255.377,331.894 259.860,332.010 265.800 C 332.125 271.740,332.260 259.266,332.310 238.080 C 332.389 204.216,332.326 199.418,331.790 198.380 C 331.203 197.246,330.117 196.672,330.502 197.700 " stroke="none" fill="#f8f093" fill-rule="evenodd"></path><path id="path2" d="M108.670 26.244 L 97.200 37.689 97.200 40.117 L 97.200 42.545 90.700 49.088 L 84.200 55.632 84.000 94.516 L 83.800 133.400 67.200 133.600 L 50.600 133.800 39.100 145.303 L 27.600 156.805 27.600 159.152 C 27.600 161.395,27.525 161.568,25.900 163.095 C 24.965 163.973,22.085 166.848,19.500 169.483 L 14.800 174.274 14.800 255.387 L 14.800 336.500 16.813 338.450 C 17.920 339.522,18.955 340.394,19.113 340.387 C 19.271 340.380,19.102 340.148,18.739 339.872 C 18.375 339.595,17.430 338.594,16.639 337.646 L 15.200 335.924 15.200 256.260 C 15.200 208.988,15.350 176.073,15.568 175.312 C 15.813 174.457,17.927 172.028,21.915 168.020 C 28.167 161.736,28.382 161.398,28.396 157.844 C 28.399 156.864,30.136 154.959,39.790 145.344 L 51.180 134.000 67.310 134.000 C 79.322 134.000,83.563 133.877,83.920 133.520 C 84.287 133.153,84.400 124.049,84.400 94.980 L 84.400 56.920 85.551 55.360 C 86.184 54.502,88.993 51.554,91.795 48.810 C 97.274 43.442,97.600 42.949,97.600 40.028 L 97.600 38.109 108.843 26.884 L 120.086 15.660 122.943 15.407 C 124.514 15.268,159.031 15.210,199.646 15.277 L 273.492 15.400 274.671 16.600 C 276.204 18.160,279.528 21.187,280.800 22.182 C 281.350 22.612,279.914 21.127,277.608 18.882 L 273.417 14.800 196.779 14.800 L 120.141 14.800 108.670 26.244 M131.519 37.868 C 131.144 37.969,130.727 38.400,130.592 38.826 C 130.457 39.252,130.193 39.600,130.006 39.600 C 129.820 39.600,127.462 41.797,124.767 44.482 L 119.867 49.364 119.596 52.382 L 119.325 55.400 113.067 61.600 L 106.808 67.800 106.804 111.326 C 106.801 140.557,106.664 155.107,106.386 155.626 C 105.984 156.377,105.311 156.400,83.776 156.400 L 61.580 156.400 61.213 157.366 C 61.011 157.897,60.485 158.446,60.043 158.586 C 59.602 158.726,59.133 159.183,59.000 159.600 C 58.867 160.017,58.436 160.462,58.040 160.587 C 57.645 160.713,57.118 161.262,56.869 161.808 C 56.621 162.353,56.139 162.800,55.800 162.800 C 55.461 162.800,54.979 163.247,54.731 163.792 C 54.482 164.338,53.955 164.887,53.560 165.013 C 53.164 165.138,52.726 165.602,52.586 166.043 C 52.446 166.485,51.897 167.011,51.366 167.213 C 50.469 167.554,50.400 167.784,50.400 170.452 L 50.400 173.323 44.000 179.800 L 37.600 186.277 37.600 255.911 L 37.600 325.546 38.424 325.808 C 38.878 325.952,39.440 326.489,39.673 327.001 C 39.907 327.513,40.449 328.024,40.878 328.136 C 41.308 328.249,41.757 328.714,41.876 329.170 C 42.000 329.644,42.421 330.000,42.857 330.000 C 43.291 330.000,43.775 330.407,43.979 330.945 C 44.177 331.465,44.726 331.992,45.199 332.116 C 45.672 332.239,46.151 332.692,46.264 333.122 C 46.376 333.551,46.887 334.093,47.399 334.327 C 47.911 334.560,48.448 335.122,48.592 335.576 L 48.854 336.400 196.963 336.400 L 345.072 336.400 345.527 335.400 C 345.778 334.850,346.245 334.400,346.564 334.400 C 346.884 334.400,347.264 334.029,347.408 333.576 C 347.552 333.122,348.089 332.560,348.601 332.327 C 349.113 332.093,349.624 331.551,349.736 331.122 C 349.849 330.692,350.297 330.247,350.733 330.133 C 351.169 330.019,351.619 329.569,351.733 329.133 C 351.847 328.697,352.308 328.245,352.757 328.127 C 353.206 328.010,353.685 327.563,353.821 327.134 C 353.957 326.705,354.503 326.189,355.034 325.987 L 356.000 325.620 356.000 256.202 L 356.000 186.784 350.300 181.185 C 347.165 178.105,344.306 175.309,343.946 174.971 C 343.173 174.245,342.800 172.624,342.800 169.996 C 342.800 168.406,342.635 167.984,341.800 167.437 C 341.250 167.076,340.800 166.545,340.800 166.255 C 340.800 165.965,340.366 165.530,339.835 165.289 C 339.304 165.047,338.755 164.487,338.614 164.045 C 338.474 163.603,338.036 163.138,337.640 163.013 C 337.245 162.887,336.718 162.338,336.469 161.792 C 336.221 161.247,335.739 160.800,335.400 160.800 C 335.061 160.800,334.578 160.350,334.327 159.800 C 334.077 159.250,333.627 158.800,333.327 158.800 C 333.028 158.800,332.584 158.364,332.341 157.831 C 331.668 156.352,331.270 156.329,308.673 156.443 C 290.653 156.534,287.486 156.465,287.176 155.975 C 286.964 155.639,286.810 137.232,286.806 111.710 L 286.800 68.020 281.014 62.248 C 277.832 59.074,275.007 56.402,274.735 56.312 C 274.430 56.210,274.134 54.888,273.959 52.850 L 273.675 49.552 271.538 47.404 C 270.362 46.223,268.189 44.028,266.709 42.528 C 265.229 41.028,263.762 39.585,263.450 39.322 C 263.137 39.060,262.803 38.610,262.707 38.322 C 262.454 37.563,200.351 37.548,200.098 38.307 C 199.209 40.974,194.391 40.974,193.502 38.307 C 193.337 37.811,133.315 37.386,131.519 37.868 M184.012 58.252 C 184.260 58.500,184.565 59.460,184.689 60.386 C 184.813 61.312,185.114 62.123,185.357 62.189 C 185.601 62.255,186.548 62.511,187.462 62.759 C 191.025 63.725,194.886 68.649,195.413 72.900 L 195.649 74.800 202.194 74.800 L 208.739 74.800 208.869 66.964 C 209.046 56.343,206.047 57.554,231.837 57.690 C 254.744 57.810,253.523 57.661,253.889 60.386 C 254.013 61.312,254.314 62.123,254.557 62.189 C 254.801 62.255,255.739 62.509,256.642 62.753 C 260.156 63.704,263.676 67.998,264.322 72.122 C 264.578 73.758,264.936 74.620,265.531 75.037 C 265.996 75.363,266.594 76.356,266.861 77.245 C 267.285 78.660,267.649 79.013,269.773 80.072 C 278.200 84.272,278.000 82.906,278.000 136.242 L 278.000 176.400 279.500 176.408 C 280.325 176.413,290.216 176.458,301.480 176.508 C 324.053 176.609,322.768 176.442,323.092 179.322 C 323.284 181.024,323.367 181.124,324.752 181.346 C 328.271 181.909,332.323 185.948,333.233 189.800 C 333.787 192.145,334.298 193.229,335.144 193.852 C 335.481 194.101,335.949 195.001,336.184 195.852 C 336.559 197.213,336.935 197.569,339.293 198.800 C 342.648 200.551,343.984 201.837,345.447 204.724 L 346.600 207.000 346.908 235.800 C 347.398 281.526,347.130 318.915,346.294 321.400 C 345.374 324.139,342.557 327.250,339.919 328.442 L 337.800 329.400 203.400 329.400 L 69.000 329.400 66.656 328.212 C 62.919 326.319,60.587 323.099,60.125 319.195 C 59.930 317.547,59.701 317.101,58.844 316.689 L 57.800 316.189 57.705 256.195 C 57.631 209.172,57.717 195.989,58.105 195.224 C 58.875 193.707,62.404 192.441,65.926 192.419 C 70.588 192.389,70.400 192.707,70.400 184.862 C 70.400 175.497,67.384 176.600,93.000 176.600 C 117.188 176.600,115.600 176.384,115.600 179.676 C 115.600 180.987,115.726 181.201,116.500 181.209 C 118.812 181.231,124.554 185.577,126.346 188.661 C 126.654 189.190,126.779 173.603,126.788 133.719 C 126.797 91.527,126.915 77.784,127.276 76.992 C 128.031 75.336,129.923 74.800,135.018 74.800 L 139.539 74.800 139.669 66.964 C 139.798 59.255,139.816 59.115,140.757 58.354 C 141.903 57.427,183.090 57.330,184.012 58.252 M330.802 133.981 L 342.603 134.200 344.832 136.400 C 348.004 139.530,351.200 142.445,351.200 142.208 C 351.200 141.837,345.685 136.473,344.836 136.019 C 344.376 135.773,344.000 135.315,344.000 135.000 C 344.000 133.752,342.468 133.600,330.726 133.681 L 319.000 133.762 330.802 133.981 " stroke="none" fill="#99c7cd" fill-rule="evenodd"></path><path id="path3" d="M0.000 200.000 L 0.000 400.000 200.000 400.000 L 400.000 400.000 400.000 200.000 L 400.000 0.000 200.000 0.000 L 0.000 0.000 0.000 200.000 M275.107 15.900 C 275.775 16.615,276.507 17.200,276.734 17.200 C 276.960 17.200,277.260 17.560,277.400 18.000 C 277.540 18.440,277.899 18.800,278.198 18.800 C 278.497 18.800,279.096 19.250,279.529 19.800 C 279.961 20.350,280.501 20.800,280.729 20.800 C 280.957 20.800,281.442 21.099,281.808 21.465 C 282.173 21.830,283.191 22.612,284.069 23.202 C 286.163 24.608,300.875 39.227,302.785 41.800 C 303.602 42.900,305.144 45.330,306.212 47.200 C 308.441 51.103,309.935 53.126,313.639 57.257 C 320.052 64.408,319.729 62.158,319.896 100.845 L 320.035 133.090 322.476 133.345 C 323.819 133.485,329.024 133.600,334.043 133.600 C 341.791 133.600,343.246 133.693,343.684 134.219 C 344.298 134.956,344.581 135.218,346.350 136.682 C 347.092 137.297,348.135 138.205,348.668 138.700 C 349.201 139.195,349.809 139.600,350.021 139.600 C 350.232 139.600,350.797 140.050,351.275 140.600 C 351.753 141.150,352.395 141.600,352.702 141.600 C 353.009 141.600,357.216 145.509,362.051 150.286 C 370.709 158.842,371.724 160.065,376.425 167.600 C 378.049 170.204,377.786 169.862,382.384 175.342 C 389.734 184.103,389.000 174.177,389.000 264.800 L 389.000 341.000 388.117 343.800 C 385.607 351.755,368.067 369.080,360.631 370.948 C 356.673 371.942,51.131 371.951,46.679 370.957 C 41.904 369.891,40.165 368.623,30.886 359.440 C 21.513 350.163,19.618 347.697,18.560 343.400 C 18.181 341.860,17.650 340.467,17.380 340.305 C 17.110 340.143,16.776 339.558,16.637 339.005 C 16.498 338.452,16.125 338.000,15.806 338.000 C 15.488 338.000,15.042 337.652,14.814 337.226 C 14.363 336.384,14.207 177.823,14.654 175.118 C 14.860 173.869,15.899 172.631,21.249 167.261 L 27.600 160.887 27.600 158.641 L 27.600 156.394 31.372 152.597 C 33.447 150.509,35.342 148.800,35.582 148.800 C 35.823 148.800,36.185 148.365,36.387 147.834 C 36.589 147.303,37.124 146.751,37.577 146.607 C 38.030 146.464,38.400 146.177,38.400 145.970 C 38.400 145.439,45.851 138.000,46.382 138.000 C 46.623 138.000,46.985 137.565,47.187 137.034 C 47.389 136.503,47.881 135.965,48.281 135.838 C 48.680 135.711,49.186 135.201,49.404 134.704 L 49.800 133.800 66.600 133.600 L 83.400 133.400 83.609 94.400 C 83.724 72.950,83.859 55.388,83.909 55.372 C 83.959 55.357,86.880 52.484,90.400 48.988 L 96.800 42.630 96.806 40.215 C 96.813 37.555,96.976 37.143,98.300 36.446 C 98.795 36.185,99.200 35.789,99.200 35.567 C 99.200 35.237,101.461 32.911,105.281 29.311 C 105.944 28.687,106.690 27.940,107.311 27.281 C 107.580 26.995,108.034 26.545,108.319 26.281 C 108.605 26.016,109.055 25.567,109.319 25.281 C 112.384 21.975,115.245 19.200,115.589 19.200 C 115.825 19.200,116.221 18.753,116.469 18.208 C 116.718 17.662,117.227 17.118,117.600 17.000 C 117.973 16.882,118.477 16.350,118.718 15.819 C 119.345 14.443,114.632 14.518,197.846 14.561 L 273.892 14.600 275.107 15.900 M145.882 61.451 C 145.075 62.258,147.549 62.400,162.457 62.400 C 175.407 62.400,178.832 62.295,178.700 61.900 C 178.521 61.362,146.410 60.923,145.882 61.451 M215.071 61.462 C 214.922 61.611,214.800 61.883,214.800 62.067 C 214.800 62.250,222.285 62.400,231.433 62.400 C 244.562 62.400,248.032 62.295,247.900 61.900 C 247.719 61.355,215.606 60.927,215.071 61.462 M142.478 76.285 C 141.972 76.382,141.400 76.873,141.209 77.376 C 140.738 78.616,140.087 78.800,136.167 78.800 C 133.441 78.800,132.800 78.914,132.800 79.400 C 132.800 79.931,140.178 80.000,196.800 80.000 C 253.422 80.000,260.800 79.931,260.800 79.400 C 260.800 78.914,260.159 78.800,257.433 78.800 C 253.529 78.800,252.862 78.615,252.401 77.402 C 251.890 76.058,251.026 76.000,231.400 76.000 C 211.774 76.000,210.910 76.058,210.399 77.402 C 209.881 78.765,209.544 78.800,196.800 78.800 C 184.056 78.800,183.719 78.765,183.201 77.402 C 182.987 76.839,182.392 76.418,181.581 76.256 C 180.174 75.975,143.962 76.001,142.478 76.285 M76.500 180.900 C 76.630 181.289,80.289 181.400,93.000 181.400 C 105.711 181.400,109.370 181.289,109.500 180.900 C 109.632 180.505,106.156 180.400,93.000 180.400 C 79.844 180.400,76.368 180.505,76.500 180.900 M284.100 180.900 C 284.230 181.289,287.889 181.400,300.600 181.400 C 313.311 181.400,316.970 181.289,317.100 180.900 C 317.232 180.505,313.756 180.400,300.600 180.400 C 287.444 180.400,283.968 180.505,284.100 180.900 M74.400 183.680 C 74.400 185.047,74.914 184.848,75.382 183.300 C 75.583 182.634,75.491 182.400,75.027 182.400 C 74.588 182.400,74.400 182.784,74.400 183.680 M282.006 183.700 C 282.011 184.686,282.106 184.855,282.400 184.400 C 282.908 183.614,282.908 182.400,282.400 182.400 C 282.180 182.400,282.003 182.985,282.006 183.700 M74.400 194.128 C 74.400 194.444,73.901 194.910,73.290 195.163 C 72.680 195.416,72.005 196.022,71.790 196.511 C 71.435 197.320,71.049 197.418,67.496 197.600 C 52.167 198.385,74.552 198.555,196.700 198.576 C 303.086 198.595,330.000 198.499,330.000 198.100 C 330.000 197.734,328.938 197.600,326.023 197.600 C 322.436 197.600,321.988 197.517,321.457 196.761 C 319.966 194.631,319.945 194.628,300.800 194.406 C 291.010 194.293,282.775 194.054,282.500 193.876 C 282.182 193.670,282.000 193.762,282.000 194.128 C 282.000 194.444,281.501 194.910,280.890 195.163 C 280.280 195.416,279.605 196.022,279.390 196.511 L 279.000 197.400 196.800 197.506 L 114.600 197.613 113.882 196.739 C 112.128 194.607,112.315 194.628,93.200 194.406 C 83.410 194.293,75.175 194.054,74.900 193.876 C 74.582 193.670,74.400 193.762,74.400 194.128 M331.714 308.200 C 331.717 309.300,331.795 309.703,331.887 309.095 C 331.979 308.486,331.977 307.586,331.882 307.095 C 331.787 306.603,331.711 307.100,331.714 308.200 " stroke="none" fill="#fafafa" fill-rule="evenodd"></path><path id="path4" d="M143.067 60.267 C 142.719 60.614,142.722 62.588,143.070 62.937 C 143.576 63.443,144.805 61.088,144.332 60.519 C 143.855 59.943,143.468 59.866,143.067 60.267 M180.079 60.505 C 179.748 60.903,179.829 61.330,180.400 62.200 C 181.024 63.151,181.208 63.244,181.413 62.710 C 182.040 61.076,181.013 59.379,180.079 60.505 M212.267 60.267 C 211.919 60.614,211.922 62.588,212.270 62.937 C 212.776 63.443,214.005 61.088,213.532 60.519 C 213.055 59.943,212.668 59.866,212.267 60.267 M249.279 60.505 C 248.948 60.903,249.029 61.330,249.600 62.200 C 250.224 63.151,250.408 63.244,250.613 62.710 C 251.240 61.076,250.213 59.379,249.279 60.505 M130.049 77.711 C 129.509 78.251,129.479 79.190,129.978 79.979 C 130.418 80.674,132.040 78.969,131.723 78.144 C 131.449 77.429,130.560 77.200,130.049 77.711 M262.000 78.156 C 262.000 78.461,262.345 79.136,262.766 79.656 L 263.533 80.600 263.804 79.523 C 263.953 78.930,263.958 78.255,263.814 78.023 C 263.431 77.402,262.000 77.507,262.000 78.156 M73.867 179.067 C 73.561 179.372,73.500 181.200,73.795 181.200 C 74.358 181.200,75.501 179.808,75.322 179.341 C 75.102 178.768,74.314 178.620,73.867 179.067 M110.562 179.354 C 110.445 179.659,110.715 180.590,111.161 181.423 C 111.974 182.940,112.007 182.932,112.547 181.100 C 112.988 179.605,111.102 177.947,110.562 179.354 M281.467 179.067 C 281.158 179.375,281.101 181.200,281.400 181.200 C 282.060 181.200,283.079 179.639,282.680 179.240 C 282.175 178.735,281.846 178.688,281.467 179.067 M318.162 179.354 C 318.045 179.659,318.315 180.590,318.761 181.423 C 319.574 182.940,319.607 182.932,320.147 181.100 C 320.588 179.605,318.702 177.947,318.162 179.354 M111.606 187.876 C 111.609 190.474,111.787 192.870,112.000 193.200 C 112.262 193.605,112.390 192.149,112.394 188.724 C 112.397 185.764,112.233 183.544,112.000 183.400 C 111.742 183.240,111.602 184.828,111.606 187.876 M319.206 187.876 C 319.209 190.474,319.387 192.870,319.600 193.200 C 319.862 193.605,319.990 192.149,319.994 188.724 C 319.997 185.764,319.833 183.544,319.600 183.400 C 319.342 183.240,319.202 184.828,319.206 187.876 M129.843 192.633 C 128.958 194.938,124.701 194.800,196.800 194.800 C 266.084 194.800,264.029 194.847,263.994 193.271 C 263.978 192.583,263.135 191.809,262.936 192.300 C 262.675 192.945,130.800 193.045,130.800 192.400 C 130.800 191.767,130.111 191.935,129.843 192.633 M60.816 196.771 C 60.100 198.109,60.741 199.014,61.686 198.000 C 62.453 197.177,62.418 196.000,61.627 196.000 C 61.407 196.000,61.042 196.347,60.816 196.771 M331.318 196.442 C 330.996 196.764,331.098 197.259,331.696 198.272 C 332.300 199.297,332.603 199.522,332.851 199.131 C 333.856 197.545,332.534 195.226,331.318 196.442 M332.558 206.200 C 332.558 209.280,332.621 210.487,332.697 208.882 C 332.773 207.278,332.773 204.758,332.696 203.282 C 332.619 201.807,332.557 203.120,332.558 206.200 M60.864 294.710 L 60.800 312.820 61.826 313.210 C 63.697 313.921,331.797 313.727,332.389 313.013 C 333.120 312.132,332.690 311.448,331.374 311.399 C 330.728 311.375,269.990 311.318,196.400 311.272 C 122.810 311.226,62.384 311.051,62.121 310.883 C 61.770 310.660,61.546 306.016,61.285 293.589 L 60.929 276.600 60.864 294.710 " stroke="none" fill="#ccb204" fill-rule="evenodd"></path><path id="path5" d="M145.467 61.467 C 145.320 61.613,145.200 62.153,145.200 62.667 L 145.200 63.600 162.200 63.600 L 179.200 63.600 179.200 62.400 C 179.200 61.740,179.026 61.200,178.813 61.200 C 178.599 61.200,178.529 61.472,178.657 61.804 C 178.862 62.339,176.969 62.397,162.345 62.304 C 149.366 62.223,145.822 62.092,145.900 61.700 C 146.011 61.143,145.867 61.066,145.467 61.467 M214.400 62.400 L 214.400 63.600 231.400 63.600 L 248.400 63.600 248.400 62.400 C 248.400 61.740,248.226 61.200,248.013 61.200 C 247.799 61.200,247.729 61.470,247.855 61.800 C 248.058 62.327,246.067 62.400,231.400 62.400 C 216.733 62.400,214.742 62.327,214.945 61.800 C 215.071 61.470,215.001 61.200,214.787 61.200 C 214.574 61.200,214.400 61.740,214.400 62.400 M143.600 64.233 C 143.600 64.582,143.814 64.795,144.075 64.708 C 144.817 64.461,144.940 63.600,144.233 63.600 C 143.885 63.600,143.600 63.885,143.600 64.233 M179.692 64.075 C 179.939 64.817,180.800 64.940,180.800 64.233 C 180.800 63.885,180.515 63.600,180.167 63.600 C 179.818 63.600,179.605 63.814,179.692 64.075 M212.800 64.233 C 212.800 64.940,213.661 64.817,213.908 64.075 C 213.995 63.814,213.782 63.600,213.433 63.600 C 213.085 63.600,212.800 63.885,212.800 64.233 M248.892 64.075 C 249.139 64.817,250.000 64.940,250.000 64.233 C 250.000 63.885,249.715 63.600,249.367 63.600 C 249.018 63.600,248.805 63.814,248.892 64.075 M143.254 75.500 C 142.899 76.162,143.923 76.200,162.200 76.200 C 180.477 76.200,181.501 76.162,181.146 75.500 C 180.798 74.849,179.478 74.800,162.200 74.800 C 144.922 74.800,143.602 74.849,143.254 75.500 M212.454 75.500 C 212.099 76.162,213.123 76.200,231.400 76.200 C 249.677 76.200,250.701 76.162,250.346 75.500 C 249.998 74.849,248.678 74.800,231.400 74.800 C 214.122 74.800,212.802 74.849,212.454 75.500 M132.000 79.167 C 132.000 80.892,128.365 80.800,196.843 80.800 C 235.659 80.800,261.200 80.654,261.200 80.433 C 261.200 80.231,261.309 79.781,261.443 79.433 C 261.576 79.085,261.486 78.800,261.243 78.800 C 260.999 78.800,260.800 79.070,260.800 79.400 C 260.800 79.931,253.422 80.000,196.800 80.000 C 140.178 80.000,132.800 79.931,132.800 79.400 C 132.800 79.070,132.620 78.800,132.400 78.800 C 132.180 78.800,132.000 78.965,132.000 79.167 M130.800 81.413 C 130.800 82.060,131.425 82.207,131.774 81.642 C 131.896 81.445,131.726 81.181,131.398 81.054 C 131.035 80.915,130.800 81.056,130.800 81.413 M75.300 181.058 C 74.238 182.250,74.204 182.400,75.000 182.400 C 75.740 182.400,75.744 182.560,75.034 184.140 C 74.687 184.912,74.405 187.260,74.305 190.200 C 74.215 192.840,74.214 194.683,74.301 194.295 C 74.399 193.865,74.643 193.709,74.930 193.895 C 75.189 194.063,83.410 194.293,93.200 194.406 C 112.424 194.629,112.082 194.589,113.982 196.833 L 114.801 197.800 114.214 196.615 C 113.835 195.850,112.752 194.964,111.155 194.115 L 108.684 192.800 92.762 192.800 C 74.247 192.800,76.121 193.449,76.400 187.132 L 76.600 182.600 92.979 182.495 C 109.885 182.388,109.998 182.376,109.982 180.800 C 109.977 180.330,109.887 180.352,109.568 180.900 C 108.901 182.046,76.912 181.972,76.487 180.824 C 76.214 180.086,76.155 180.098,75.300 181.058 M282.876 181.085 C 282.188 181.857,282.079 182.201,282.450 182.431 C 282.838 182.671,282.847 183.078,282.492 184.269 C 282.241 185.111,281.968 187.870,281.886 190.400 C 281.804 192.930,281.810 194.683,281.899 194.295 C 281.998 193.865,282.244 193.709,282.530 193.895 C 282.789 194.063,291.010 194.293,300.800 194.406 C 320.024 194.629,319.682 194.589,321.582 196.833 L 322.401 197.800 321.814 196.615 C 321.435 195.850,320.352 194.964,318.755 194.115 L 316.284 192.800 300.185 192.800 C 287.662 192.800,284.048 192.689,283.917 192.300 C 283.824 192.025,283.824 189.685,283.917 187.100 L 284.086 182.400 300.600 182.400 C 315.290 182.400,317.141 182.330,317.357 181.767 C 317.747 180.751,317.613 180.136,317.168 180.900 C 316.501 182.046,284.512 181.972,284.087 180.824 C 283.815 180.089,283.750 180.103,282.876 181.085 M62.800 198.151 C 62.800 198.454,62.432 198.949,61.983 199.251 C 61.175 199.794,61.169 199.973,61.448 216.734 C 61.799 237.820,62.301 237.736,62.854 216.500 C 63.082 207.755,63.338 200.374,63.423 200.098 C 63.546 199.696,90.249 199.597,196.878 199.602 C 329.367 199.609,330.181 199.605,330.472 198.817 C 330.633 198.382,330.593 197.919,330.382 197.789 C 330.172 197.659,330.000 197.788,330.000 198.076 C 330.000 198.507,306.299 198.593,196.700 198.560 C 96.425 198.530,63.425 198.406,63.500 198.060 C 63.555 197.807,63.420 197.600,63.200 197.600 C 62.980 197.600,62.800 197.848,62.800 198.151 M331.493 255.838 C 331.063 257.011,330.422 277.994,330.407 291.400 C 330.400 297.560,330.279 303.816,330.139 305.302 L 329.884 308.004 197.442 307.902 C 124.599 307.846,64.685 307.646,64.300 307.457 C 63.721 307.174,63.600 307.302,63.600 308.200 C 63.600 309.098,63.721 309.226,64.300 308.943 C 64.685 308.754,124.625 308.554,197.500 308.498 L 330.000 308.395 330.000 309.355 C 330.000 310.283,330.656 310.800,331.833 310.800 C 332.314 310.800,332.391 308.386,332.343 294.900 C 332.266 273.232,331.865 254.823,331.493 255.838 M331.887 309.095 C 331.795 309.703,331.717 309.300,331.714 308.200 C 331.711 307.100,331.787 306.603,331.882 307.095 C 331.977 307.586,331.979 308.486,331.887 309.095 " stroke="none" fill="#f6f0a8" fill-rule="evenodd"></path><path id="path6" d="M285.376 28.578 C 285.804 28.920,286.286 29.200,286.449 29.200 C 286.613 29.200,286.857 29.551,286.994 29.980 C 287.130 30.408,287.566 30.862,287.963 30.988 C 288.361 31.114,288.879 31.619,289.116 32.109 C 289.352 32.599,289.558 32.790,289.573 32.533 C 289.609 31.903,286.830 29.047,285.592 28.441 C 284.657 27.984,284.645 27.992,285.376 28.578 M295.870 40.600 C 296.180 43.345,298.293 46.196,305.145 53.112 C 308.352 56.350,308.669 56.942,308.977 60.268 C 309.123 61.845,309.720 64.545,310.304 66.268 L 311.365 69.400 311.583 101.398 L 311.800 133.397 313.200 133.851 C 313.970 134.101,315.500 134.391,316.600 134.496 C 317.700 134.602,318.240 134.606,317.800 134.505 C 315.936 134.081,316.000 135.209,315.992 103.051 C 315.982 66.204,315.991 66.284,311.482 60.795 C 310.309 59.368,309.126 57.644,308.853 56.965 C 308.580 56.285,307.466 54.796,306.378 53.655 C 305.290 52.514,304.400 51.427,304.400 51.240 C 304.400 51.052,304.151 50.691,303.847 50.439 C 303.543 50.186,302.615 48.819,301.785 47.401 C 300.956 45.982,299.405 43.843,298.339 42.648 C 297.273 41.452,296.231 40.052,296.023 39.537 C 295.744 38.845,295.704 39.123,295.870 40.600 M273.855 48.000 C 274.106 48.330,274.383 49.924,274.471 51.542 L 274.631 54.483 281.123 60.742 C 284.694 64.184,287.612 66.889,287.608 66.752 C 287.603 66.616,284.720 63.644,281.200 60.147 L 274.800 53.790 274.800 51.144 C 274.800 49.100,274.641 48.373,274.100 47.949 C 273.491 47.472,273.459 47.478,273.855 48.000 M140.749 58.660 C 140.342 59.150,140.148 61.342,140.000 67.160 L 139.800 75.000 134.294 75.220 C 129.800 75.399,128.661 75.567,128.094 76.134 C 127.442 76.786,127.400 80.148,127.396 131.714 L 127.393 186.600 127.498 132.639 C 127.608 76.003,127.559 77.439,129.361 77.685 C 129.951 77.766,130.168 77.605,130.092 77.142 C 129.924 76.116,132.066 75.600,136.488 75.600 C 140.374 75.600,140.453 75.619,140.328 76.500 C 140.205 77.361,140.015 77.405,135.900 77.514 C 130.525 77.655,130.127 78.400,135.426 78.400 C 139.323 78.400,140.800 78.017,140.800 77.008 C 140.800 76.697,141.295 76.207,141.900 75.917 L 143.000 75.390 143.111 69.004 C 143.184 64.754,143.088 62.752,142.822 63.018 C 142.602 63.238,142.372 66.114,142.311 69.409 C 142.202 75.279,142.182 75.403,141.300 75.528 L 140.400 75.656 140.400 68.482 C 140.400 57.669,138.813 58.400,162.275 58.400 C 184.696 58.400,183.555 58.059,184.365 65.000 C 184.720 68.039,184.927 68.694,185.692 69.200 C 187.262 70.239,188.389 71.670,188.850 73.210 C 189.438 75.172,191.829 75.600,202.205 75.600 L 209.656 75.600 209.528 76.500 L 209.400 77.400 197.092 77.506 L 184.785 77.612 183.392 76.219 L 182.000 74.827 182.000 69.037 C 182.000 65.609,181.837 63.146,181.600 63.000 C 181.340 62.839,181.200 64.883,181.200 68.836 L 181.200 74.920 183.042 76.660 L 184.884 78.400 196.668 78.400 C 208.410 78.400,210.000 78.234,210.000 77.008 C 210.000 76.697,210.495 76.207,211.100 75.917 L 212.200 75.390 212.311 69.004 C 212.384 64.754,212.288 62.752,212.022 63.018 C 211.802 63.238,211.572 66.114,211.511 69.409 C 211.402 75.279,211.382 75.403,210.500 75.528 L 209.600 75.656 209.600 68.482 C 209.600 57.669,208.013 58.400,231.475 58.400 C 253.896 58.400,252.755 58.059,253.565 65.000 C 253.920 68.039,254.127 68.694,254.892 69.200 C 256.475 70.248,257.590 71.674,258.065 73.261 C 258.360 74.245,258.767 74.800,259.192 74.800 C 260.431 74.800,263.661 76.093,263.886 76.679 C 264.009 76.999,264.539 77.425,265.065 77.625 C 266.203 78.057,266.204 78.060,266.692 82.458 C 267.060 85.769,267.141 85.972,268.601 87.254 C 271.825 90.085,271.581 85.648,271.591 141.658 L 271.600 191.515 272.760 192.758 C 273.454 193.500,274.319 194.000,274.910 194.000 C 277.245 194.000,278.446 194.477,278.321 195.354 C 278.131 196.683,268.279 196.831,187.953 196.709 L 116.106 196.600 114.453 194.947 L 112.800 193.294 112.800 187.180 C 112.800 183.818,112.687 181.179,112.549 181.317 C 112.412 181.455,112.314 184.372,112.333 187.800 L 112.367 194.031 114.020 195.619 L 115.673 197.208 196.809 197.104 L 277.946 197.000 279.783 195.082 L 281.621 193.164 281.565 187.282 C 281.535 184.047,281.362 181.040,281.183 180.600 C 280.993 180.135,280.844 182.510,280.828 186.267 C 280.797 193.349,280.688 194.000,279.533 194.000 C 278.551 194.000,278.539 179.298,279.520 178.319 C 280.392 177.449,320.542 177.570,321.417 178.446 C 321.834 178.863,322.252 180.535,322.595 183.164 C 323.125 187.221,323.134 187.243,324.997 189.118 C 326.025 190.153,327.346 191.508,327.933 192.128 C 328.520 192.749,329.842 193.690,330.872 194.221 C 332.754 195.190,333.631 196.000,332.800 196.000 C 332.554 196.000,332.469 196.189,332.612 196.419 C 332.791 196.709,333.035 196.703,333.401 196.399 C 334.188 195.746,335.600 197.430,335.600 199.021 C 335.600 202.182,336.365 204.460,337.942 205.990 C 340.992 208.950,340.800 205.043,340.800 264.226 L 340.800 317.109 339.688 319.237 C 338.807 320.924,338.167 321.575,336.599 322.382 L 334.621 323.400 203.400 323.400 L 72.179 323.400 70.189 322.392 C 68.575 321.573,67.992 320.974,67.097 319.213 C 65.737 316.540,65.746 316.545,62.166 316.210 C 60.559 316.059,59.054 315.706,58.821 315.425 C 57.973 314.403,58.457 197.176,59.311 196.644 C 59.852 196.307,60.103 196.328,60.356 196.734 C 60.623 197.163,60.736 197.143,60.932 196.634 C 61.070 196.274,60.969 196.000,60.698 196.000 C 60.436 196.000,60.662 195.692,61.200 195.315 C 62.777 194.210,70.600 194.281,70.600 195.400 C 70.600 196.141,70.295 196.208,66.500 196.314 C 63.898 196.386,62.400 196.586,62.400 196.861 C 62.400 197.152,63.697 197.241,66.386 197.133 L 70.371 196.973 72.196 195.068 L 74.021 193.164 73.965 187.282 C 73.935 184.047,73.762 181.040,73.583 180.600 C 73.393 180.135,73.242 182.567,73.222 186.400 C 73.187 193.134,72.971 194.305,71.840 193.871 C 71.068 193.574,70.890 181.409,71.627 179.293 C 72.210 177.621,74.083 177.495,95.886 177.665 C 116.117 177.823,114.155 177.253,115.036 183.224 C 115.629 187.245,115.709 187.452,117.191 188.800 C 118.038 189.570,118.881 190.500,119.065 190.866 C 119.795 192.318,122.361 193.892,124.451 194.169 C 127.067 194.516,127.209 194.305,127.114 190.200 L 127.041 187.000 126.904 189.843 L 126.767 192.687 125.284 192.413 C 123.293 192.047,122.000 191.309,122.000 190.540 C 122.000 188.969,120.238 186.825,117.940 185.600 C 115.744 184.430,115.599 184.263,115.583 182.877 C 115.506 176.391,117.026 176.800,93.013 176.800 C 67.999 176.800,70.802 175.775,70.794 184.923 C 70.786 193.323,71.043 192.866,66.134 193.220 C 60.780 193.606,59.283 193.947,58.590 194.935 C 57.776 196.098,57.687 315.249,58.500 315.906 C 58.775 316.129,59.941 316.437,61.091 316.592 C 63.185 316.873,63.986 317.879,63.998 320.240 C 64.003 321.240,66.503 324.031,68.073 324.790 C 71.498 326.445,70.257 326.431,205.200 326.313 L 335.800 326.200 337.795 325.280 C 340.407 324.076,341.339 323.155,342.468 320.661 L 343.400 318.600 343.515 265.800 C 343.637 209.928,343.628 209.607,341.762 205.925 C 340.885 204.195,338.486 202.095,336.709 201.503 C 336.499 201.433,336.180 200.036,336.000 198.399 C 335.659 195.297,335.789 195.515,332.907 193.180 C 332.635 192.961,331.780 192.407,331.007 191.951 C 330.233 191.494,329.600 190.848,329.600 190.515 C 329.600 188.913,327.803 186.758,325.574 185.688 C 323.147 184.523,322.800 183.779,322.800 179.744 C 322.800 176.672,323.773 176.800,300.476 176.800 C 283.221 176.800,279.623 176.895,278.976 177.367 C 278.268 177.884,278.188 178.554,278.067 184.967 L 277.934 192.000 276.667 191.994 C 275.970 191.991,275.178 191.847,274.908 191.675 C 274.523 191.431,274.392 180.382,274.308 141.181 L 274.200 91.000 273.307 88.800 C 272.252 86.201,270.947 84.695,268.802 83.601 C 267.154 82.760,267.165 82.787,266.592 78.292 C 266.312 76.095,265.381 75.255,262.851 74.916 C 261.412 74.723,261.247 74.577,261.003 73.274 C 260.335 69.712,258.022 66.917,255.150 66.200 C 254.063 65.929,253.600 64.384,253.600 61.033 C 253.600 60.343,253.320 59.378,252.977 58.889 L 252.355 58.000 231.426 58.000 C 212.465 58.000,210.446 58.062,209.949 58.660 C 209.542 59.150,209.348 61.342,209.200 67.160 L 209.000 75.000 204.600 75.128 C 202.180 75.198,198.372 75.137,196.138 74.992 L 192.076 74.728 191.805 73.286 C 191.135 69.712,188.826 66.918,185.950 66.200 C 184.863 65.929,184.400 64.384,184.400 61.033 C 184.400 60.343,184.120 59.378,183.777 58.889 L 183.155 58.000 162.226 58.000 C 143.265 58.000,141.246 58.062,140.749 58.660 M144.357 60.517 C 144.763 60.923,179.648 60.912,180.055 60.505 C 180.223 60.337,172.188 60.200,162.200 60.200 C 152.212 60.200,144.182 60.342,144.357 60.517 M213.549 60.509 C 213.952 60.912,248.848 60.912,249.251 60.509 C 249.421 60.339,241.388 60.200,231.400 60.200 C 221.412 60.200,213.379 60.339,213.549 60.509 M250.400 68.836 L 250.400 74.920 252.242 76.660 L 254.084 78.400 258.042 78.400 C 260.414 78.400,262.000 78.240,262.000 78.000 C 262.000 77.760,260.396 77.600,257.987 77.600 L 253.973 77.600 252.587 76.213 L 251.200 74.827 251.200 69.037 C 251.200 65.609,251.037 63.146,250.800 63.000 C 250.540 62.839,250.400 64.883,250.400 68.836 M287.720 69.600 C 287.720 70.810,287.795 71.305,287.887 70.700 C 287.978 70.095,287.978 69.105,287.887 68.500 C 287.795 67.895,287.720 68.390,287.720 69.600 M287.296 114.126 C 287.200 154.250,287.252 156.010,288.514 155.994 C 288.818 155.990,288.775 155.845,288.400 155.609 C 287.875 155.277,287.774 150.121,287.596 114.515 L 287.392 73.800 287.296 114.126 M129.612 136.200 C 129.612 173.016,129.749 192.789,130.000 192.400 C 130.530 191.581,130.530 80.819,130.000 80.000 C 129.749 79.611,129.612 99.384,129.612 136.200 M263.443 80.233 C 263.021 81.332,263.176 191.743,263.600 192.400 C 263.851 192.789,263.990 173.054,263.994 136.300 C 263.997 105.115,263.929 79.600,263.843 79.600 C 263.756 79.600,263.576 79.885,263.443 80.233 M290.912 155.895 C 291.964 155.977,293.584 155.976,294.512 155.892 C 295.440 155.808,294.580 155.741,292.600 155.742 C 290.620 155.743,289.860 155.812,290.912 155.895 M364.255 156.800 C 364.506 157.130,364.837 158.341,364.991 159.491 C 365.262 161.501,365.980 162.745,368.341 165.290 C 368.805 165.790,369.749 166.830,370.438 167.600 C 371.126 168.370,373.034 170.371,374.677 172.046 L 377.664 175.091 378.054 178.246 C 378.473 181.631,378.740 182.858,379.873 186.600 C 380.565 188.883,380.600 192.689,380.600 264.821 L 380.600 340.641 379.122 343.631 C 377.173 347.575,364.902 359.923,361.084 361.782 C 357.573 363.491,363.260 363.441,200.733 363.213 L 48.465 363.000 44.875 361.126 C 42.900 360.095,40.590 359.124,39.742 358.967 C 38.257 358.692,24.000 345.157,24.000 344.022 C 24.000 343.820,23.640 343.540,23.200 343.400 C 22.760 343.260,22.400 342.910,22.400 342.622 C 22.400 342.334,22.122 341.867,21.783 341.586 C 21.421 341.285,21.576 341.803,22.157 342.837 C 22.703 343.806,23.521 345.269,23.976 346.086 C 25.997 349.720,40.832 364.179,44.400 365.990 C 47.632 367.632,44.499 367.600,203.947 367.600 C 374.797 367.600,359.764 367.854,364.153 364.894 C 368.444 361.999,381.428 348.703,383.008 345.585 C 385.273 341.114,385.200 343.795,385.198 265.065 C 385.195 188.269,385.168 187.072,383.363 183.499 C 382.692 182.170,379.695 177.967,379.152 177.592 C 378.986 177.478,378.485 176.533,378.039 175.492 C 377.593 174.451,377.038 173.600,376.806 173.600 C 376.573 173.600,376.179 173.153,375.931 172.608 C 375.682 172.062,375.155 171.513,374.760 171.387 C 374.364 171.262,373.930 170.809,373.794 170.382 C 373.659 169.954,373.319 169.376,373.040 169.097 C 372.760 168.817,371.749 167.331,370.793 165.794 C 369.837 164.257,368.188 162.066,367.128 160.924 C 366.067 159.782,365.200 158.499,365.200 158.073 C 365.200 157.647,364.885 157.051,364.500 156.749 C 363.891 156.272,363.859 156.278,364.255 156.800 M343.100 166.799 C 343.379 167.112,343.606 168.430,343.614 169.780 C 343.622 171.111,343.847 172.566,344.114 173.012 C 344.645 173.900,354.290 183.368,355.594 184.281 C 356.037 184.591,356.414 185.150,356.432 185.523 C 356.455 186.028,356.520 186.057,356.685 185.639 C 356.827 185.281,354.575 182.824,350.453 178.839 L 344.000 172.600 344.000 169.949 C 344.000 167.893,343.843 167.179,343.300 166.768 C 342.704 166.318,342.675 166.322,343.100 166.799 M75.302 179.305 C 75.460 179.780,110.363 179.874,110.545 179.400 C 110.646 179.137,104.618 179.000,92.949 179.000 C 83.187 179.000,75.246 179.137,75.302 179.305 M282.745 179.305 C 283.220 179.781,317.963 179.874,318.145 179.400 C 318.246 179.137,312.158 179.000,300.369 179.000 C 290.508 179.000,282.578 179.137,282.745 179.305 M320.060 181.800 C 319.995 182.240,319.950 185.174,319.959 188.320 L 319.977 194.041 321.621 195.620 L 323.265 197.200 327.009 197.200 C 329.073 197.200,330.864 197.021,331.000 196.800 C 331.158 196.544,329.855 196.400,327.377 196.400 L 323.506 196.400 321.964 194.858 L 320.421 193.316 320.300 187.158 C 320.232 183.771,320.124 181.360,320.060 181.800 M356.400 258.480 C 356.290 295.814,356.336 326.225,356.501 326.059 C 356.667 325.893,356.757 295.347,356.701 258.179 L 356.600 190.600 356.400 258.480 M60.479 254.800 C 60.533 300.673,60.604 307.740,60.845 291.000 C 61.235 263.888,61.162 198.981,60.740 198.317 C 60.560 198.032,60.442 223.450,60.479 254.800 M332.637 199.500 C 332.317 200.532,332.601 311.534,332.925 311.858 C 333.076 312.009,333.200 286.633,333.200 255.467 C 333.200 224.300,333.122 198.800,333.027 198.800 C 332.932 198.800,332.756 199.115,332.637 199.500 M350.400 331.229 C 344.927 336.904,344.496 337.379,345.007 337.163 C 345.651 336.891,355.793 326.397,355.380 326.430 C 355.171 326.446,352.930 328.606,350.400 331.229 M44.600 333.333 C 45.480 334.153,46.715 335.403,47.344 336.112 C 47.973 336.820,48.302 337.040,48.076 336.600 C 47.652 335.777,45.219 333.388,43.800 332.400 C 43.360 332.094,43.720 332.514,44.600 333.333 M121.500 337.100 C 158.515 337.156,219.085 337.156,256.100 337.100 C 293.115 337.044,262.830 336.998,188.800 336.998 C 114.770 336.998,84.485 337.044,121.500 337.100 M49.705 337.487 C 50.314 337.579,51.214 337.577,51.705 337.482 C 52.197 337.387,51.700 337.311,50.600 337.314 C 49.500 337.317,49.097 337.395,49.705 337.487 " stroke="none" fill="#848484" fill-rule="evenodd"></path><path id="path7" d="M121.471 15.553 C 120.120 15.771,118.642 17.098,108.771 26.953 L 97.600 38.106 97.600 40.027 C 97.600 42.949,97.274 43.442,91.795 48.810 C 88.993 51.554,86.184 54.502,85.551 55.360 L 84.400 56.920 84.400 94.980 C 84.400 124.049,84.287 133.153,83.920 133.520 C 83.563 133.877,79.322 134.000,67.310 134.000 L 51.180 134.000 39.790 145.344 C 30.136 154.959,28.399 156.864,28.396 157.844 C 28.382 161.398,28.167 161.736,21.915 168.020 C 17.927 172.028,15.813 174.457,15.568 175.312 C 15.350 176.073,15.200 208.988,15.200 256.260 L 15.200 335.924 16.500 337.470 C 17.215 338.321,18.160 339.412,18.600 339.897 C 19.040 340.381,19.850 341.332,20.400 342.010 C 20.950 342.687,21.780 343.638,22.244 344.121 C 22.709 344.604,23.216 345.405,23.371 345.900 C 23.527 346.395,23.826 346.800,24.037 346.800 C 24.248 346.800,24.101 346.245,23.710 345.567 C 23.320 344.890,22.700 343.794,22.334 343.133 C 21.967 342.472,21.391 341.631,21.054 341.265 C 18.841 338.866,18.000 337.838,18.000 337.532 C 18.000 337.340,17.550 336.978,17.000 336.727 L 16.000 336.272 16.000 256.024 L 16.000 175.776 22.291 169.468 L 28.582 163.160 28.831 160.119 C 29.050 157.434,29.204 156.988,30.140 156.306 C 30.723 155.881,31.200 155.307,31.200 155.031 C 31.200 154.755,31.650 154.323,32.200 154.073 C 32.750 153.822,33.201 153.388,33.203 153.109 C 33.204 152.829,33.744 152.293,34.403 151.919 C 35.061 151.544,35.600 150.980,35.600 150.665 C 35.600 150.351,35.973 149.996,36.430 149.876 C 36.886 149.757,37.357 149.286,37.476 148.830 C 37.596 148.373,37.879 148.000,38.107 148.000 C 38.564 148.000,42.000 144.489,42.000 144.022 C 42.000 143.861,42.450 143.523,43.000 143.273 C 43.550 143.022,44.001 142.588,44.003 142.309 C 44.004 142.029,44.544 141.493,45.203 141.119 C 45.861 140.744,46.400 140.180,46.400 139.865 C 46.400 139.551,46.773 139.196,47.230 139.076 C 47.686 138.957,48.157 138.486,48.276 138.030 C 48.396 137.573,48.751 137.200,49.065 137.200 C 49.380 137.200,49.944 136.661,50.319 136.003 L 51.000 134.805 67.326 134.803 C 77.811 134.801,83.929 134.652,84.426 134.386 C 85.183 133.981,85.200 133.128,85.200 95.608 L 85.200 57.244 91.489 50.943 L 97.777 44.642 98.057 41.713 L 98.337 38.783 109.652 27.492 L 120.967 16.200 196.915 16.200 L 272.864 16.200 273.665 17.300 C 274.106 17.905,274.701 18.400,274.987 18.400 C 275.274 18.400,275.803 18.850,276.163 19.400 C 276.524 19.950,277.055 20.400,277.345 20.400 C 277.635 20.400,278.077 20.850,278.327 21.400 C 278.578 21.950,278.966 22.400,279.190 22.400 C 279.550 22.400,281.275 24.002,287.682 30.285 C 290.243 32.796,290.717 33.278,293.106 35.799 C 294.044 36.790,294.961 37.600,295.143 37.600 C 295.324 37.600,295.687 38.312,295.948 39.183 C 296.421 40.762,297.200 41.719,297.200 40.721 C 297.200 38.360,293.377 34.110,280.361 22.000 C 277.878 19.690,275.317 17.260,274.669 16.600 L 273.492 15.400 198.246 15.353 C 156.861 15.327,122.312 15.417,121.471 15.553 M127.200 39.828 C 125.330 41.685,123.662 43.339,123.493 43.502 C 118.926 47.923,118.400 48.713,118.400 51.147 L 118.400 53.513 112.100 59.741 L 105.800 65.969 105.600 110.484 L 105.400 155.000 83.085 155.200 C 60.084 155.406,60.039 155.409,60.006 156.873 C 60.003 157.023,59.630 157.264,59.177 157.407 C 58.724 157.551,58.189 158.103,57.987 158.634 C 57.785 159.165,57.341 159.600,57.001 159.600 C 56.661 159.600,56.178 160.050,55.927 160.600 C 55.677 161.150,55.293 161.600,55.076 161.600 C 54.858 161.600,53.942 162.406,53.040 163.392 C 50.742 165.902,50.517 166.135,49.819 166.716 C 49.389 167.074,49.200 167.949,49.200 169.577 L 49.200 171.922 42.800 178.326 L 36.400 184.731 36.400 255.343 C 36.400 325.229,36.408 325.960,37.191 326.509 C 38.433 327.379,42.221 330.730,45.535 333.891 L 48.566 336.782 196.968 336.838 C 308.484 336.880,345.407 336.780,345.522 336.434 C 345.758 335.727,354.944 326.584,355.718 326.287 C 356.412 326.020,356.460 318.417,356.597 187.999 L 356.600 185.397 352.000 180.954 C 349.470 178.510,346.752 175.901,345.961 175.155 C 343.978 173.288,343.600 172.417,343.600 169.715 C 343.600 167.683,343.456 167.243,342.500 166.343 C 341.895 165.774,340.140 163.912,338.600 162.206 C 337.060 160.500,334.921 158.209,333.846 157.117 L 331.891 155.129 314.446 155.362 C 304.851 155.490,294.990 155.701,292.533 155.832 C 288.251 156.059,288.046 156.033,287.605 155.210 C 287.266 154.575,287.168 142.909,287.232 110.489 L 287.318 66.627 280.975 60.570 L 274.633 54.513 274.478 51.557 C 274.354 49.184,274.153 48.435,273.462 47.762 C 272.988 47.300,271.610 45.802,270.400 44.432 C 269.190 43.062,267.008 40.695,265.552 39.171 L 262.904 36.400 231.279 36.400 L 199.654 36.400 198.800 37.600 C 197.642 39.227,196.066 39.227,194.863 37.600 L 193.976 36.400 162.288 36.425 L 130.600 36.451 127.200 39.828 M193.502 38.307 C 194.391 40.974,199.209 40.974,200.098 38.307 C 200.351 37.548,262.454 37.563,262.707 38.322 C 262.803 38.610,263.137 39.060,263.450 39.322 C 263.762 39.585,265.229 41.028,266.709 42.528 C 268.189 44.028,270.362 46.223,271.538 47.404 L 273.675 49.552 273.959 52.850 C 274.134 54.888,274.430 56.210,274.735 56.312 C 275.007 56.402,277.832 59.074,281.014 62.248 L 286.800 68.020 286.806 111.710 C 286.810 137.232,286.964 155.639,287.176 155.975 C 287.486 156.465,290.653 156.534,308.673 156.443 C 331.270 156.329,331.668 156.352,332.341 157.831 C 332.584 158.364,333.028 158.800,333.327 158.800 C 333.627 158.800,334.077 159.250,334.327 159.800 C 334.578 160.350,335.061 160.800,335.400 160.800 C 335.739 160.800,336.221 161.247,336.469 161.792 C 336.718 162.338,337.245 162.887,337.640 163.013 C 338.036 163.138,338.474 163.603,338.614 164.045 C 338.755 164.487,339.304 165.047,339.835 165.289 C 340.366 165.530,340.800 165.965,340.800 166.255 C 340.800 166.545,341.250 167.076,341.800 167.437 C 342.635 167.984,342.800 168.406,342.800 169.996 C 342.800 172.624,343.173 174.245,343.946 174.971 C 344.306 175.309,347.165 178.105,350.300 181.185 L 356.000 186.784 356.000 256.202 L 356.000 325.620 355.034 325.987 C 354.503 326.189,353.957 326.705,353.821 327.134 C 353.685 327.563,353.206 328.010,352.757 328.127 C 352.308 328.245,351.847 328.697,351.733 329.133 C 351.619 329.569,351.169 330.019,350.733 330.133 C 350.297 330.247,349.849 330.692,349.736 331.122 C 349.624 331.551,349.113 332.093,348.601 332.327 C 348.089 332.560,347.552 333.122,347.408 333.576 C 347.264 334.029,346.884 334.400,346.564 334.400 C 346.245 334.400,345.778 334.850,345.527 335.400 L 345.072 336.400 196.963 336.400 L 48.854 336.400 48.592 335.576 C 48.448 335.122,47.911 334.560,47.399 334.327 C 46.887 334.093,46.376 333.551,46.264 333.122 C 46.151 332.692,45.672 332.239,45.199 332.116 C 44.726 331.992,44.177 331.465,43.979 330.945 C 43.775 330.407,43.291 330.000,42.857 330.000 C 42.421 330.000,42.000 329.644,41.876 329.170 C 41.757 328.714,41.308 328.249,40.878 328.136 C 40.449 328.024,39.907 327.513,39.673 327.001 C 39.440 326.489,38.878 325.952,38.424 325.808 L 37.600 325.546 37.600 255.911 L 37.600 186.277 44.000 179.800 L 50.400 173.323 50.400 170.452 C 50.400 167.784,50.469 167.554,51.366 167.213 C 51.897 167.011,52.446 166.485,52.586 166.043 C 52.726 165.602,53.164 165.138,53.560 165.013 C 53.955 164.887,54.482 164.338,54.731 163.792 C 54.979 163.247,55.461 162.800,55.800 162.800 C 56.139 162.800,56.621 162.353,56.869 161.808 C 57.118 161.262,57.645 160.713,58.040 160.587 C 58.436 160.462,58.867 160.017,59.000 159.600 C 59.133 159.183,59.602 158.726,60.043 158.586 C 60.485 158.446,61.011 157.897,61.213 157.366 L 61.580 156.400 83.776 156.400 C 105.311 156.400,105.984 156.377,106.386 155.626 C 106.664 155.107,106.801 140.557,106.804 111.326 L 106.808 67.800 113.067 61.600 L 119.325 55.400 119.596 52.382 L 119.867 49.364 124.767 44.482 C 127.462 41.797,129.820 39.600,130.006 39.600 C 130.193 39.600,130.457 39.252,130.592 38.826 C 130.727 38.400,131.144 37.969,131.519 37.868 C 133.315 37.386,193.337 37.811,193.502 38.307 M302.363 48.227 C 302.791 49.121,303.425 50.089,303.771 50.376 C 304.117 50.663,304.400 51.053,304.400 51.242 C 304.400 51.431,305.233 52.444,306.252 53.493 C 307.270 54.542,308.476 56.210,308.931 57.200 C 309.392 58.202,309.818 58.731,309.891 58.393 C 310.180 57.062,308.863 54.747,306.200 51.903 C 304.660 50.258,302.992 48.392,302.493 47.756 L 301.585 46.600 302.363 48.227 M151.928 57.900 C 157.718 57.962,167.078 57.962,172.728 57.900 C 178.378 57.837,173.640 57.786,162.200 57.786 C 150.760 57.786,146.138 57.837,151.928 57.900 M221.128 57.900 C 226.918 57.962,236.278 57.962,241.928 57.900 C 247.578 57.837,242.840 57.786,231.400 57.786 C 219.960 57.786,215.338 57.837,221.128 57.900 M183.777 58.889 C 184.120 59.378,184.400 60.343,184.400 61.033 C 184.400 64.384,184.863 65.929,185.950 66.200 C 188.837 66.921,191.135 69.712,191.812 73.322 C 192.082 74.761,192.135 74.800,193.858 74.800 L 195.628 74.800 195.365 72.700 C 194.842 68.525,191.026 63.725,187.462 62.759 C 186.548 62.511,185.575 62.245,185.300 62.167 C 185.025 62.089,184.800 61.581,184.800 61.039 C 184.800 59.706,184.119 58.000,183.587 58.000 C 183.334 58.000,183.413 58.369,183.777 58.889 M252.977 58.889 C 253.320 59.378,253.600 60.343,253.600 61.033 C 253.600 64.384,254.063 65.929,255.150 66.200 C 258.022 66.917,260.335 69.712,261.003 73.274 C 261.247 74.577,261.412 74.723,262.851 74.916 C 265.381 75.255,266.312 76.095,266.592 78.292 C 267.165 82.787,267.154 82.760,268.802 83.601 C 270.947 84.695,272.252 86.201,273.307 88.800 L 274.200 91.000 274.308 141.181 C 274.392 180.382,274.523 191.431,274.908 191.675 C 275.178 191.847,275.985 191.991,276.700 191.994 L 278.000 192.000 278.040 185.700 C 278.088 178.070,278.206 177.547,280.016 176.923 L 281.400 176.445 279.700 176.423 L 278.000 176.400 278.000 136.242 C 278.000 82.906,278.200 84.272,269.773 80.072 C 267.649 79.013,267.285 78.660,266.861 77.245 C 266.594 76.356,265.996 75.363,265.531 75.037 C 264.936 74.620,264.578 73.758,264.322 72.122 C 263.676 67.998,260.156 63.704,256.642 62.753 C 255.739 62.509,254.775 62.245,254.500 62.167 C 254.225 62.089,254.000 61.581,254.000 61.039 C 254.000 59.706,253.319 58.000,252.787 58.000 C 252.534 58.000,252.613 58.369,252.977 58.889 M139.690 67.500 L 139.600 74.800 134.900 74.806 C 132.315 74.809,129.992 74.944,129.738 75.106 C 129.484 75.268,131.554 75.339,134.338 75.264 C 140.584 75.096,140.041 75.867,139.900 67.370 L 139.780 60.200 139.690 67.500 M208.890 67.490 L 208.800 74.780 202.300 74.901 L 195.800 75.021 202.313 75.111 C 210.042 75.217,209.253 76.138,209.100 67.186 L 208.980 60.200 208.890 67.490 M127.049 77.415 C 126.912 77.773,126.844 102.666,126.897 132.733 L 126.994 187.400 127.197 132.200 C 127.414 73.285,127.422 76.444,127.049 77.415 M316.514 133.848 C 317.176 134.546,318.075 134.608,329.114 134.705 C 342.289 134.822,342.616 134.853,342.914 135.994 C 343.030 136.435,343.416 136.908,343.773 137.045 C 344.467 137.311,346.888 139.514,351.968 144.500 C 353.705 146.205,355.327 147.600,355.573 147.600 C 355.819 147.600,356.185 148.035,356.387 148.566 C 356.589 149.097,357.115 149.646,357.557 149.786 C 357.998 149.926,358.467 150.383,358.600 150.800 C 358.733 151.217,359.183 151.667,359.600 151.800 C 360.017 151.933,360.474 152.402,360.614 152.843 C 360.754 153.285,361.303 153.811,361.834 154.013 C 362.365 154.215,362.800 154.642,362.800 154.963 C 362.800 155.283,363.340 155.930,364.000 156.400 C 364.660 156.870,365.200 157.568,365.200 157.951 C 365.200 158.334,365.483 158.996,365.830 159.424 C 366.437 160.173,366.452 160.165,366.235 159.200 C 366.112 158.650,366.008 157.912,366.005 157.561 C 366.000 156.885,359.104 149.829,351.581 142.800 C 349.108 140.490,346.077 137.610,344.844 136.400 L 342.603 134.200 330.201 133.957 C 323.381 133.824,317.350 133.575,316.800 133.405 C 315.833 133.105,315.823 133.120,316.514 133.848 M369.624 163.692 C 369.595 164.048,372.350 168.401,373.048 169.102 C 373.323 169.379,373.659 169.954,373.794 170.382 C 373.930 170.809,374.383 171.267,374.800 171.400 C 375.217 171.533,375.670 171.992,375.807 172.421 C 375.943 172.850,376.374 173.372,376.766 173.582 C 377.157 173.791,377.806 174.823,378.207 175.875 C 379.032 178.035,379.463 177.661,378.835 175.329 C 378.589 174.418,377.630 172.967,376.464 171.745 C 374.363 169.543,370.903 165.403,370.124 164.160 C 369.861 163.742,369.636 163.532,369.624 163.692 M84.727 176.700 C 89.417 176.764,96.977 176.764,101.527 176.699 C 106.077 176.635,102.240 176.583,93.000 176.583 C 83.760 176.583,80.037 176.636,84.727 176.700 M292.327 176.700 C 297.017 176.764,304.577 176.764,309.127 176.699 C 313.677 176.635,309.840 176.583,300.600 176.583 C 291.360 176.583,287.637 176.636,292.327 176.700 M70.814 177.574 C 70.577 178.018,70.400 181.167,70.400 184.960 C 70.400 192.693,70.583 192.387,65.926 192.422 C 63.927 192.438,62.430 192.695,61.200 193.235 C 59.895 193.808,59.730 193.957,60.600 193.776 C 61.260 193.640,63.661 193.393,65.936 193.229 C 71.074 192.858,70.786 193.351,70.794 184.923 C 70.800 178.273,70.829 178.025,71.689 177.423 C 72.402 176.923,72.445 176.800,71.903 176.800 C 71.532 176.800,71.042 177.148,70.814 177.574 M114.176 177.333 C 114.576 177.626,115.040 178.571,115.206 179.433 L 115.508 181.000 115.554 179.674 C 115.611 178.037,114.989 176.800,114.109 176.800 C 113.526 176.800,113.534 176.864,114.176 177.333 M322.000 177.600 C 322.483 178.083,322.800 178.933,322.800 179.744 C 322.800 183.779,323.147 184.523,325.574 185.688 C 327.803 186.758,329.600 188.913,329.600 190.515 C 329.600 190.848,330.233 191.494,331.007 191.951 C 331.780 192.407,332.635 192.961,332.907 193.180 C 335.789 195.515,335.659 195.297,336.000 198.399 C 336.180 200.036,336.499 201.433,336.709 201.503 C 338.486 202.095,340.885 204.195,341.762 205.925 C 343.628 209.607,343.637 209.928,343.515 265.800 L 343.400 318.600 342.480 320.595 C 341.276 323.207,340.355 324.139,337.861 325.268 L 335.800 326.200 205.200 326.313 C 70.257 326.431,71.498 326.445,68.073 324.790 C 66.503 324.031,64.003 321.240,63.998 320.240 C 63.986 317.828,63.189 316.856,61.001 316.583 C 59.803 316.433,58.639 316.088,58.413 315.816 C 58.137 315.484,57.969 295.698,57.899 255.561 L 57.796 195.800 57.798 255.995 L 57.800 316.189 58.844 316.689 C 59.701 317.101,59.930 317.547,60.125 319.195 C 60.587 323.099,62.919 326.319,66.656 328.212 L 69.000 329.400 203.400 329.400 L 337.800 329.400 339.919 328.442 C 342.557 327.250,345.374 324.139,346.294 321.400 C 347.130 318.915,347.398 281.526,346.908 235.800 L 346.600 207.000 345.447 204.724 C 343.984 201.837,342.648 200.551,339.293 198.800 C 336.935 197.569,336.559 197.213,336.184 195.852 C 335.949 195.001,335.481 194.101,335.144 193.852 C 334.298 193.229,333.787 192.145,333.233 189.800 C 332.318 185.925,328.270 181.908,324.705 181.338 C 323.380 181.126,323.200 180.964,323.200 179.975 C 323.200 178.358,322.518 176.800,321.810 176.800 C 321.327 176.800,321.366 176.966,322.000 177.600 M115.600 182.777 C 115.600 184.290,115.693 184.403,117.940 185.600 C 120.238 186.825,122.000 188.969,122.000 190.540 C 122.000 191.311,123.294 192.047,125.300 192.416 L 126.800 192.693 126.800 191.120 C 126.800 189.069,126.438 188.453,123.423 185.379 C 119.304 181.177,115.600 179.945,115.600 182.777 " stroke="none" fill="#74acbc" fill-rule="evenodd"></path><path id="path8" d="M159.100 14.700 C 179.835 14.757,213.765 14.757,234.500 14.700 C 255.235 14.643,238.270 14.596,196.800 14.596 C 155.330 14.596,138.365 14.643,159.100 14.700 M118.756 15.700 C 118.286 16.595,118.288 16.596,119.142 15.838 C 120.095 14.991,120.182 14.800,119.614 14.800 C 119.402 14.800,119.016 15.205,118.756 15.700 M281.425 22.600 C 285.769 26.890,289.476 30.400,289.662 30.400 C 289.848 30.400,290.000 30.674,290.000 31.009 C 290.000 31.343,290.430 31.813,290.956 32.053 C 291.482 32.292,292.108 32.918,292.347 33.444 C 292.587 33.970,293.028 34.400,293.327 34.400 C 293.627 34.400,294.077 34.850,294.327 35.400 C 294.578 35.950,294.954 36.400,295.163 36.400 C 295.976 36.400,296.716 37.643,296.990 39.470 C 297.213 40.960,297.707 41.876,299.238 43.644 C 300.317 44.889,301.200 45.997,301.200 46.104 C 301.200 46.391,303.013 48.446,306.337 51.925 C 308.858 54.565,309.337 55.298,309.720 57.105 C 310.034 58.582,310.681 59.834,311.890 61.305 C 315.931 66.221,315.982 66.740,315.992 102.853 L 316.000 133.107 316.900 133.348 C 317.395 133.481,319.060 133.560,320.600 133.525 C 322.470 133.482,322.841 133.410,321.718 133.308 L 320.035 133.156 319.896 100.878 C 319.729 62.153,320.053 64.408,313.639 57.257 C 309.935 53.126,308.441 51.103,306.212 47.200 C 305.144 45.330,303.602 42.900,302.785 41.800 C 300.875 39.227,286.163 24.608,284.069 23.202 C 283.191 22.612,282.173 21.830,281.808 21.465 C 281.442 21.099,280.957 20.800,280.729 20.800 C 280.501 20.800,279.961 20.350,279.529 19.800 C 279.096 19.250,278.497 18.800,278.198 18.800 C 277.899 18.800,277.543 18.449,277.406 18.020 C 277.270 17.592,276.803 17.128,276.369 16.990 C 275.934 16.852,275.293 16.303,274.943 15.770 C 274.594 15.236,274.132 14.800,273.918 14.800 C 273.703 14.800,277.082 18.310,281.425 22.600 M113.171 21.302 C 112.605 21.796,111.975 22.478,111.771 22.819 C 111.565 23.162,111.703 23.109,112.080 22.699 C 112.454 22.293,113.174 21.615,113.680 21.193 C 114.186 20.772,114.510 20.422,114.400 20.415 C 114.290 20.409,113.737 20.808,113.171 21.302 M102.371 32.102 C 101.805 32.596,101.175 33.278,100.971 33.619 C 100.765 33.962,100.903 33.909,101.280 33.499 C 101.654 33.093,102.374 32.415,102.880 31.993 C 103.386 31.572,103.710 31.222,103.600 31.215 C 103.490 31.209,102.937 31.608,102.371 32.102 M97.429 37.029 C 96.973 37.484,96.821 38.337,96.876 40.129 L 96.951 42.600 97.098 40.206 C 97.188 38.754,97.497 37.535,97.885 37.106 C 98.676 36.232,98.291 36.166,97.429 37.029 M90.400 48.979 C 86.990 52.376,84.158 55.480,84.107 55.877 C 84.040 56.396,84.081 56.431,84.252 56.000 C 84.382 55.670,87.302 52.565,90.740 49.100 C 94.178 45.635,96.903 42.801,96.795 42.802 C 96.688 42.803,93.810 45.583,90.400 48.979 M83.600 95.080 C 83.490 116.244,83.536 133.424,83.702 133.258 C 83.868 133.092,83.958 115.776,83.902 94.778 L 83.800 56.600 83.600 95.080 M153.900 61.100 C 158.575 61.164,166.225 61.164,170.900 61.100 C 175.575 61.036,171.750 60.983,162.400 60.983 C 153.050 60.983,149.225 61.036,153.900 61.100 M222.927 61.100 C 227.727 61.164,235.467 61.163,240.127 61.099 C 244.787 61.036,240.860 60.983,231.400 60.983 C 221.940 60.983,218.127 61.036,222.927 61.100 M141.900 75.864 C 141.295 76.183,140.800 76.693,140.800 76.998 C 140.800 77.945,139.935 78.192,135.800 78.428 L 131.800 78.655 135.726 78.728 C 139.730 78.801,141.200 78.438,141.200 77.376 C 141.200 77.048,141.650 76.609,142.200 76.400 C 142.750 76.191,143.200 75.835,143.200 75.610 C 143.200 75.384,143.155 75.219,143.100 75.242 C 143.045 75.266,142.505 75.546,141.900 75.864 M181.200 75.561 C 181.200 75.813,181.650 76.191,182.200 76.400 C 182.750 76.609,183.200 77.048,183.200 77.376 C 183.200 78.641,184.721 78.800,196.800 78.800 C 208.879 78.800,210.400 78.641,210.400 77.376 C 210.400 77.048,210.850 76.609,211.400 76.400 C 211.950 76.191,212.400 75.849,212.400 75.641 C 212.400 75.432,211.860 75.531,211.200 75.860 C 210.540 76.189,210.000 76.709,210.000 77.015 C 210.000 78.234,208.394 78.400,196.604 78.400 L 184.755 78.400 183.677 77.283 C 182.074 75.622,181.200 75.014,181.200 75.561 M250.400 75.561 C 250.400 75.813,250.850 76.191,251.400 76.400 C 251.950 76.609,252.400 77.048,252.400 77.376 C 252.400 78.428,253.858 78.802,257.674 78.729 L 261.400 78.657 257.493 78.429 C 253.938 78.221,253.506 78.107,252.693 77.171 C 251.422 75.707,250.400 74.989,250.400 75.561 M344.000 135.170 C 344.000 135.391,344.373 135.772,344.829 136.016 C 347.649 137.524,365.893 156.692,366.158 158.423 C 366.370 159.812,366.885 160.694,368.515 162.461 C 369.662 163.705,371.179 165.515,371.887 166.483 C 372.594 167.451,374.416 169.519,375.935 171.077 C 378.272 173.475,378.737 174.186,378.965 175.706 C 379.144 176.898,379.777 178.224,380.850 179.651 C 385.499 185.835,385.195 179.857,385.198 265.065 C 385.200 351.329,385.766 343.644,378.881 350.892 C 368.645 361.666,363.693 365.866,359.896 366.994 C 357.011 367.850,51.176 367.911,47.541 367.056 C 43.390 366.079,40.085 363.431,29.964 352.976 C 23.967 346.782,23.200 345.932,23.200 345.483 C 23.200 345.050,23.181 345.029,18.194 339.933 L 14.802 336.467 14.700 255.933 L 14.598 175.400 14.499 255.926 C 14.399 337.237,14.411 338.000,15.806 338.000 C 16.125 338.000,16.498 338.452,16.637 339.005 C 16.776 339.558,17.110 340.143,17.380 340.305 C 17.650 340.467,18.181 341.860,18.560 343.400 C 19.618 347.697,21.513 350.163,30.886 359.440 C 40.165 368.623,41.904 369.891,46.679 370.957 C 51.131 371.951,356.673 371.942,360.631 370.948 C 364.476 369.982,367.366 367.984,373.282 362.203 C 384.196 351.538,386.627 348.523,388.117 343.800 L 389.000 341.000 389.000 264.800 C 389.000 174.177,389.734 184.103,382.384 175.342 C 377.786 169.862,378.049 170.204,376.425 167.600 C 371.724 160.065,370.709 158.842,362.051 150.286 C 357.216 145.509,353.009 141.600,352.702 141.600 C 352.395 141.600,351.753 141.150,351.275 140.600 C 350.797 140.050,350.232 139.600,350.021 139.600 C 349.809 139.600,349.201 139.195,348.668 138.700 C 347.801 137.895,345.866 136.254,344.500 135.166 C 344.168 134.902,344.000 134.903,344.000 135.170 M44.200 139.713 C 43.320 140.640,42.960 141.136,43.400 140.816 C 44.483 140.027,46.423 137.997,46.077 138.013 C 45.925 138.021,45.080 138.785,44.200 139.713 M33.400 150.513 C 32.520 151.440,32.160 151.936,32.600 151.616 C 33.683 150.827,35.623 148.797,35.277 148.813 C 35.125 148.821,34.280 149.585,33.400 150.513 M28.600 155.366 C 27.940 155.895,27.490 156.399,27.600 156.485 C 27.710 156.571,28.337 156.137,28.994 155.520 C 30.457 154.148,30.230 154.059,28.600 155.366 M21.037 167.471 C 17.607 170.920,14.803 173.935,14.806 174.171 C 14.809 174.407,14.967 174.355,15.157 174.056 C 15.347 173.756,18.260 170.741,21.631 167.356 C 25.002 163.970,27.651 161.200,27.517 161.200 C 27.384 161.200,24.468 164.022,21.037 167.471 M76.200 180.000 C 76.358 180.256,82.404 180.400,93.024 180.400 C 103.808 180.400,109.600 180.260,109.600 180.000 C 109.600 179.740,103.725 179.600,92.776 179.600 C 81.663 179.600,76.037 179.736,76.200 180.000 M283.800 180.000 C 283.958 180.256,290.004 180.400,300.624 180.400 C 311.408 180.400,317.200 180.260,317.200 180.000 C 317.200 179.740,311.325 179.600,300.376 179.600 C 289.263 179.600,283.637 179.736,283.800 180.000 M73.947 182.300 C 73.866 182.685,73.899 185.250,74.019 188.000 L 74.238 193.000 74.319 187.300 C 74.395 181.961,74.296 180.633,73.947 182.300 M281.547 182.300 C 281.466 182.685,281.499 185.250,281.619 188.000 L 281.838 193.000 281.919 187.300 C 281.995 181.961,281.896 180.633,281.547 182.300 M72.101 195.102 L 70.403 196.942 66.501 197.209 L 62.600 197.477 66.526 197.538 C 70.443 197.600,72.000 197.234,72.000 196.254 C 72.000 195.968,72.450 195.494,73.000 195.200 C 73.550 194.906,74.000 194.335,74.000 193.932 C 74.000 193.001,74.095 192.942,72.101 195.102 M279.674 195.131 L 277.947 197.000 196.755 197.104 L 115.562 197.208 114.481 196.087 C 112.943 194.493,112.000 193.823,112.000 194.324 C 112.000 194.556,112.355 194.859,112.789 194.997 C 113.224 195.134,113.811 195.732,114.095 196.324 L 114.611 197.400 196.330 197.501 C 278.266 197.602,279.600 197.582,279.600 196.254 C 279.600 195.968,280.050 195.494,280.600 195.200 C 281.150 194.906,281.600 194.335,281.600 193.932 C 281.600 193.000,281.698 192.939,279.674 195.131 M319.600 194.324 C 319.600 194.556,319.955 194.859,320.389 194.997 C 320.824 195.134,321.411 195.732,321.694 196.324 C 322.203 197.387,322.259 197.400,326.404 197.436 L 330.600 197.473 326.693 197.236 C 323.143 197.022,322.705 196.906,321.893 195.971 C 320.679 194.572,319.600 193.797,319.600 194.324 M60.940 202.800 C 60.940 204.670,61.009 205.435,61.093 204.500 C 61.177 203.565,61.177 202.035,61.093 201.100 C 61.009 200.165,60.940 200.930,60.940 202.800 M332.580 296.600 C 332.580 304.300,332.634 307.393,332.699 303.474 C 332.765 299.555,332.765 293.255,332.699 289.474 C 332.634 285.693,332.580 288.900,332.580 296.600 " stroke="none" fill="#bcbcbc" fill-rule="evenodd"></path></g></svg>